<?xml version="1.0" encoding="UTF-8"?>
<svg version="1.1" xmlns="http://www.w3.org/2000/svg" width="512" height="512">
<path d="M0 0 C11.79677043 9.66190713 20.79918997 20.41404451 27.75 34 C28.09643555 34.67385742 28.44287109 35.34771484 28.79980469 36.04199219 C30.7244596 39.94342406 31.8987897 43.36886527 32.375 47.75 C33.220625 47.41226563 34.06625 47.07453125 34.9375 46.7265625 C56.14991146 38.38622799 76.01785611 37.45249048 97.375 46.75 C115.02131197 55.40057592 129.03815216 70.0902088 136.125 88.4375 C140.37319847 101.11357609 140.98129651 113.59134877 139.375 126.75 C139.045 127.41 138.715 128.07 138.375 128.75 C139.10203125 128.71519531 139.8290625 128.68039062 140.578125 128.64453125 C158.09323148 128.17297069 173.58126708 134.87833792 186.375 146.75 C198.82060604 158.57719083 205.29268627 174.54437693 205.89428711 191.47802734 C206.16536975 211.21958243 200.79564199 227.74498843 186.94921875 242.3671875 C173.13886787 255.15066859 157.38995844 261.06662865 138.72059631 261.01742554 C137.45577075 261.02195665 136.19094519 261.02648776 134.88779157 261.03115618 C131.39277084 261.04334355 127.89784614 261.04313075 124.40280902 261.04076743 C120.62684154 261.04035816 116.8509044 261.05140918 113.07495117 261.06088257 C105.68151655 261.0774721 98.28811383 261.08299126 90.89466215 261.08410732 C84.87954777 261.08505914 78.86444387 261.08917612 72.84933281 261.09550858 C55.77273761 261.11311844 38.69616751 261.1223483 21.61956317 261.12084763 C20.69959707 261.12076772 19.77963097 261.1206878 18.83178711 261.12060547 C17.9106892 261.12052371 16.9895913 261.12044195 16.04058134 261.12035771 C1.13102124 261.11954575 -13.77843759 261.13866128 -28.68796843 261.1668822 C-44.01918921 261.19567072 -59.35036073 261.2094191 -74.68160921 261.20769465 C-83.27984268 261.20703262 -91.87797011 261.21244216 -100.47617912 261.23405075 C-107.80096216 261.25234166 -115.12559114 261.25654574 -122.45038723 261.2430319 C-126.18117263 261.23654074 -129.9116632 261.23624346 -133.64241982 261.2537384 C-169.74691697 261.41250207 -169.74691697 261.41250207 -185.125 252.875 C-186.1154834 252.34966675 -186.1154834 252.34966675 -187.12597656 251.8137207 C-188.97510965 250.81836632 -190.80284648 249.79374232 -192.625 248.75 C-193.47578125 248.26660156 -194.3265625 247.78320312 -195.203125 247.28515625 C-215.2349136 234.85535936 -227.99093763 214.31808033 -233.625 191.75 C-238.84776504 169.06331267 -233.84715638 146.53055435 -222.625 126.75 C-222.14160156 125.89792969 -221.65820312 125.04585937 -221.16015625 124.16796875 C-209.32713652 105.13224136 -190.01761274 92.47820074 -168.6875 86.42578125 C-164.02580158 85.39711565 -159.38964235 84.94096763 -154.625 84.75 C-154.65980469 83.80382812 -154.69460937 82.85765625 -154.73046875 81.8828125 C-155.38453186 56.0902633 -148.11632653 33.78092833 -131.625 13.75 C-130.8825 12.76 -130.14 11.77 -129.375 10.75 C-97.26923963 -26.98469238 -38.0093353 -28.07896842 0 0 Z " fill="#000000" transform="translate(234.625,235.25)"/>
<path d="M0 0 C5.15441639 3.85049781 9.8878239 8.14966737 14.5625 12.5625 C15.25214844 13.18769531 15.94179688 13.81289062 16.65234375 14.45703125 C32.98995756 29.82409375 44.44790512 54.20852079 45.73950195 76.63598633 C46.28451308 105.61711559 46.28451308 105.61711559 41.5625 119.5625 C41.24901611 120.50706055 41.24901611 120.50706055 40.92919922 121.47070312 C35.61983125 137.10848205 27.149091 149.90755153 15.5625 161.5625 C14.79164063 162.35914063 14.02078125 163.15578125 13.2265625 163.9765625 C11.36725007 165.87734659 9.51505258 167.75780218 7.5625 169.5625 C6.97339844 170.12839844 6.38429688 170.69429687 5.77734375 171.27734375 C2.45793333 173.2034214 0.33272206 173.14316327 -3.4375 172.5625 C-5.65133291 170.62767069 -7.25848972 168.94744827 -9.0625 166.6875 C-27.60535784 145.2232867 -53.52075198 134.81543113 -81.43359375 132.7578125 C-84.66593211 132.58027289 -87.80570511 132.59018521 -91.03515625 132.8046875 C-101.22442178 133.47133975 -101.22442178 133.47133975 -104.8828125 130.73046875 C-106.98179644 128.11702797 -108.69837351 125.42649197 -110.4375 122.5625 C-123.47612696 105.22733501 -140.27645099 92.64318812 -159.8515625 83.42578125 C-161.4375 82.5625 -161.4375 82.5625 -162.4375 80.5625 C-162.69287292 74.9260549 -162.15144722 69.96495962 -160.8125 64.5 C-160.63356201 63.76539551 -160.45462402 63.03079102 -160.27026367 62.27392578 C-155.39233689 43.14488183 -146.24310587 27.53369035 -132.4375 13.5625 C-131.79425781 12.84707031 -131.15101563 12.13164063 -130.48828125 11.39453125 C-98.26133435 -23.62868002 -38.08547253 -25.48887991 0 0 Z " fill="#000000" transform="translate(386.4375,112.4375)"/>
<path d="M0 0 C3.72026774 1.87623892 6.34905978 4.49062699 8.20703125 8.22265625 C9.54232535 12.52088105 9.71940006 16.94246925 8.8671875 21.34765625 C6.14527006 25.89171976 2.88994378 29.62001453 -0.8515625 33.33203125 C-1.66119446 34.14453339 -1.66119446 34.14453339 -2.48718262 34.97344971 C-3.62099857 36.10861808 -4.75730972 37.24129924 -5.89599609 38.37158203 C-7.63486006 40.09969115 -9.36273802 41.8382731 -11.08984375 43.578125 C-12.19727562 44.68423593 -13.30532739 45.78972665 -14.4140625 46.89453125 C-14.92771362 47.41223083 -15.44136475 47.92993042 -15.97058105 48.46331787 C-20.34696056 52.78307975 -23.2906647 54.63560324 -29.4453125 54.72265625 C-34.93306713 54.59826715 -37.82709539 53.77465558 -42.1328125 50.34765625 C-46.10468291 45.35735753 -46.59095714 41.389949 -46.6640625 35.09375 C-45.480515 28.97585376 -40.70167969 24.61710458 -36.4140625 20.36328125 C-35.87430786 19.82161316 -35.33455322 19.27994507 -34.77844238 18.72186279 C-33.64462643 17.58669442 -32.50831528 16.45401326 -31.36962891 15.32373047 C-29.63076494 13.59562135 -27.90288698 11.8570394 -26.17578125 10.1171875 C-25.06834938 9.01107657 -23.96029761 7.90558585 -22.8515625 6.80078125 C-22.33791138 6.28308167 -21.82426025 5.76538208 -21.29504395 5.23199463 C-15.09906132 -0.88383 -8.53781177 -2.61138199 0 0 Z " fill="#000000" transform="translate(454.1328125,65.65234375)"/>
<path d="M0 0 C4.54406351 2.72191744 8.27235828 5.97724372 11.984375 9.71875 C12.52604309 10.25850464 13.06771118 10.79825928 13.62579346 11.35437012 C14.76096183 12.48818607 15.89364299 13.62449722 17.02392578 14.76318359 C18.7520349 16.50204756 20.49061685 18.22992552 22.23046875 19.95703125 C23.33657968 21.06446312 24.4420704 22.17251489 25.546875 23.28125 C26.06457458 23.79490112 26.58227417 24.30855225 27.11566162 24.83776855 C31.4354235 29.21414806 33.28794699 32.1578522 33.375 38.3125 C33.2506109 43.80025463 32.42699933 46.69428289 29 51 C24.00970128 54.97187041 20.04229275 55.45814464 13.74609375 55.53125 C7.62819751 54.3477025 3.26944833 49.56886719 -0.984375 45.28125 C-1.52604309 44.74149536 -2.06771118 44.20174072 -2.62579346 43.64562988 C-3.76096183 42.51181393 -4.89364299 41.37550278 -6.02392578 40.23681641 C-7.7520349 38.49795244 -9.49061685 36.77007448 -11.23046875 35.04296875 C-12.33657968 33.93553688 -13.4420704 32.82748511 -14.546875 31.71875 C-15.06457458 31.20509888 -15.58227417 30.69144775 -16.11566162 30.16223145 C-20.4354235 25.78585194 -22.28794699 22.8421478 -22.375 16.6875 C-22.2506109 11.19974537 -21.42699933 8.30571711 -18 4 C-12.55483181 -0.33390937 -6.86995971 -1.32903915 0 0 Z " fill="#000000" transform="translate(215,65)"/>
<path d="M0 0 C4.54406351 2.72191744 8.27235828 5.97724372 11.984375 9.71875 C12.52604309 10.25850464 13.06771118 10.79825928 13.62579346 11.35437012 C14.76096183 12.48818607 15.89364299 13.62449722 17.02392578 14.76318359 C18.7520349 16.50204756 20.49061685 18.22992552 22.23046875 19.95703125 C23.33657968 21.06446312 24.4420704 22.17251489 25.546875 23.28125 C26.06457458 23.79490112 26.58227417 24.30855225 27.11566162 24.83776855 C31.39207805 29.17023449 33.28947701 32.15493569 33.4375 38.25 C33.32251147 43.98409452 31.88930629 47.77968892 28 52 C23.56286973 55.38067068 19.16957332 55.37996609 13.78125 55.49609375 C7.6357912 54.39992343 3.27098275 49.5704138 -0.984375 45.28125 C-1.52604309 44.74149536 -2.06771118 44.20174072 -2.62579346 43.64562988 C-3.76096183 42.51181393 -4.89364299 41.37550278 -6.02392578 40.23681641 C-7.7520349 38.49795244 -9.49061685 36.77007448 -11.23046875 35.04296875 C-12.33657968 33.93553688 -13.4420704 32.82748511 -14.546875 31.71875 C-15.06457458 31.20509888 -15.58227417 30.69144775 -16.11566162 30.16223145 C-20.4354235 25.78585194 -22.28794699 22.8421478 -22.375 16.6875 C-22.2506109 11.19974537 -21.42699933 8.30571711 -18 4 C-12.55483181 -0.33390937 -6.86995971 -1.32903915 0 0 Z " fill="#000000" transform="translate(430,280)"/>
<path d="M0 0 C0.95390625 -0.0038269 1.9078125 -0.00765381 2.890625 -0.01159668 C4.90105245 -0.01431036 6.91151553 -0.00698737 8.921875 0.00976562 C11.99038787 0.03118291 15.05655952 0.00994534 18.125 -0.015625 C20.08333848 -0.01298163 22.0416755 -0.00785645 24 0 C25.36898437 -0.01214539 25.36898437 -0.01214539 26.765625 -0.02453613 C32.34723968 0.05719316 35.57473138 0.80813314 40 4.53125 C43.62833663 8.35055172 44.31000458 11.41404006 44.5 16.53125 C44.31000458 21.64845994 43.62833663 24.71194828 40 28.53125 C34.73573631 32.96023965 30.57725694 33.12085225 24 33.0625 C22.56914062 33.06824036 22.56914062 33.06824036 21.109375 33.07409668 C19.09894755 33.07681036 17.08848447 33.06948737 15.078125 33.05273438 C12.00961213 33.03131709 8.94344048 33.05255466 5.875 33.078125 C3.91666152 33.07548163 1.9583245 33.07035645 0 33.0625 C-1.36898438 33.07464539 -1.36898438 33.07464539 -2.765625 33.08703613 C-8.34723968 33.00530684 -11.57473138 32.25436686 -16 28.53125 C-19.62833663 24.71194828 -20.31000458 21.64845994 -20.5 16.53125 C-20.31000458 11.41404006 -19.62833663 8.35055172 -16 4.53125 C-10.73573631 0.10226035 -6.57725694 -0.05835225 0 0 Z " fill="#000000" transform="translate(468,183.46875)"/>
<path d="M0 0 C4.96592669 2.30560882 7.41978039 5.22082111 10 10 C10.57098662 13.33824707 10.56124181 16.61943061 10.53125 20 C10.5350769 20.95390625 10.53890381 21.9078125 10.54284668 22.890625 C10.54556036 24.90105245 10.53823737 26.91151553 10.52148438 28.921875 C10.50006709 31.99038787 10.52130466 35.05655952 10.546875 38.125 C10.54423163 40.08333848 10.53910645 42.0416755 10.53125 44 C10.53934692 44.91265625 10.54744385 45.8253125 10.55578613 46.765625 C10.47405684 52.34723968 9.72311686 55.57473138 6 60 C2.18069828 63.62833663 -0.88279006 64.31000458 -6 64.5 C-11.11720994 64.31000458 -14.18069828 63.62833663 -18 60 C-22.42898965 54.73573631 -22.58960225 50.57725694 -22.53125 44 C-22.5350769 43.04609375 -22.53890381 42.0921875 -22.54284668 41.109375 C-22.54556036 39.09894755 -22.53823737 37.08848447 -22.52148438 35.078125 C-22.50006709 32.00961213 -22.52130466 28.94344048 -22.546875 25.875 C-22.54423163 23.91666152 -22.53910645 21.9583245 -22.53125 20 C-22.53934692 19.08734375 -22.54744385 18.1746875 -22.55578613 17.234375 C-22.47405684 11.65276032 -21.72311686 8.42526862 -18 4 C-12.72867143 -1.00776214 -6.89190982 -0.92775709 0 0 Z " fill="#000000" transform="translate(334,16)"/>
</svg>
